<svg width="390" height="529" viewBox="0 0 390 529" fill="none" xmlns="http://www.w3.org/2000/svg">
<rect width="390" height="529" rx="12" fill="#7EC20F"/>
<circle cx="195" cy="269" r="60" stroke="#F4F4F6" stroke-width="2"/>
<line x1="8.74228e-08" y1="268" x2="390" y2="268" stroke="#F4F4F6" stroke-width="2"/>
<circle cx="195" cy="269" r="6" fill="#F4F4F6"/>
<mask id="path-5-inside-1_636_7141" fill="white">
<path d="M122 0H269V68C269 74.6274 263.627 80 257 80H134C127.373 80 122 74.6274 122 68V0Z"/>
</mask>
<path d="M122 0H269H122ZM271 68C271 75.732 264.732 82 257 82H134C126.268 82 120 75.732 120 68H124C124 73.5229 128.477 78 134 78H257C262.523 78 267 73.5229 267 68H271ZM134 82C126.268 82 120 75.732 120 68V0H124V68C124 73.5229 128.477 78 134 78V82ZM271 0V68C271 75.732 264.732 82 257 82V78C262.523 78 267 73.5229 267 68V0H271Z" fill="#F4F4F6" mask="url(#path-5-inside-1_636_7141)"/>
<path d="M0 20.5C6.83333 20.8333 20.5 17.2 20.5 0" stroke="#F4F4F6" stroke-width="2"/>
<path d="M390 20.5C383.167 20.8333 369.5 17.2 369.5 0" stroke="#F4F4F6" stroke-width="2"/>
</svg>
